<?xml version="1.0" encoding="UTF-8" standalone="no"?>
<svg
    xmlns="http://www.w3.org/2000/svg"
    width="196.819"
    height="33.87188"
    viewBox="0 0 196.819 33.87188"
    version="1.1"
    id="svg3709"
    style="fill:none"
>
    <g
        clip-path="url(#clip0_8_380)"
        id="g3690"
        transform="translate(0,-1.6189)">
        <path
            d="m 41.3571,33.7148 c 0,0.9794 -0.793,1.776 -1.776,1.776 H 1.77598 C 0.793025,35.4908 0,34.6942 0,33.7148 0,32.7459 0.793025,31.9423 1.77598,31.9423 H 39.5811 c 0.983,0 1.776,0.8042 1.776,1.7725 z"
            id="path3680"
            style="fill:#5893ce" />
        <path
            d="m 41.3571,26.2977 c 0,0.9847 -0.793,1.7777 -1.776,1.7777 H 10.5799 c -0.98121,0 -1.77424,-0.793 -1.77424,-1.7777 0,-0.9672 0.79303,-1.7713 1.77424,-1.7713 h 29.0012 c 0.983,0 1.776,0.8041 1.776,1.7713 z"
            id="path3682"
            style="fill:#7065ad" />
        <path
            d="m 41.3572,18.8875 c 0,0.9818 -0.793,1.7777 -1.776,1.7777 h -20.469 c -0.9818,0 -1.776,-0.7959 -1.776,-1.7777 0,-0.9783 0.7942,-1.7789 1.776,-1.7789 h 20.469 c 0.983,0 1.776,0.8012 1.776,1.7789 z"
            id="path3684"
            style="fill:#ee334f" />
        <path
            d="m 41.357,11.4686 c 0,0.9847 -0.793,1.7789 -1.776,1.7789 H 27.7435 c -0.9818,0 -1.776,-0.7948 -1.776,-1.7789 0,-0.9736 0.7942,-1.76779 1.776,-1.76779 H 39.581 c 0.983,0 1.776,0.79419 1.776,1.76779 z"
            id="path3686"
            style="fill:#f6a61c" />
        <path
            d="m 41.3571,4.06023 c 0,0.98295 -0.793,1.77598 -1.776,1.77598 H 36.139 c -0.9812,0 -1.776,-0.79244 -1.776,-1.77598 6e-4,-0.97477 0.7948,-1.77715 1.776,-1.77715 h 3.4421 c 0.983,0 1.776,0.80238 1.776,1.77715 z"
            id="path3688"
            style="fill:#69bd45" />
    </g>
    <path
        d="m 69.0544,32.9717 c -0.9725,0.1404 -2.2338,0.236 -3.1574,0.236 -4.4696,0 -6.6058,-1.1657 -6.6058,-6.5162 V 9.7245 L 54.5795,9.1955 C 54.0465,9.1386 53.658,8.8497 53.658,8.3126 V 7.00244 c 0,-0.53302 0.3885,-0.87276 0.9236,-0.87276 h 4.7117 V 1.36102 c 0,-0.48419 0.3397,-0.8748 0.8748,-0.97449 L 62.6928,0 h 0.1444 c 0.3906,0 0.7304,0.33771 0.7304,0.828 v 5.30371 h 5.2447 c 0.535,0 0.9724,0.43333 0.9724,0.96838 V 8.7541 c 0,0.535 -0.4353,0.9704 -0.9724,0.9704 h -5.2447 v 16.969 c 0,2.6773 0.6815,3.0659 2.6244,3.0659 h 2.7179 c 0.6816,0 1.0193,0.1953 1.0193,0.6876 v 1.6967 c 0,0.4333 -0.2421,0.7242 -0.8748,0.828 z"
        id="path3692"
        style="fill:#333333" />
    <path
        d="m 92.088,32.868 h -2.2338 c -0.533,0 -0.9724,-0.4333 -0.9724,-0.9684 v -1.0742 c -2.3315,1.3631 -4.7605,2.3803 -7.4806,2.3803 -4.1257,0 -7.9158,-1.7964 -7.9158,-7.8711 v -0.5819 c 0,-5.2528 3.0617,-7.8793 11.706,-7.8793 h 3.5927 v -1.9449 c 0,-4.0912 -1.4078,-5.501 -5.1959,-5.501 -3.1574,0 -5.4888,0.1973 -7.4296,0.3926 h -0.2442 c -0.4353,0 -0.8748,-0.1485 -0.8748,-0.7791 V 7.3402 c 0,-0.53505 0.3398,-0.82801 1.0213,-0.92363 1.9917,-0.33771 4.2255,-0.6266 7.5273,-0.6266 6.7522,0 9.4723,3.40153 9.4723,9.13853 v 16.9711 c 0,0.5351 -0.4395,0.9684 -0.9725,0.9684 z M 88.7841,19.9393 h -3.5927 c -5.8795,0 -7.4317,1.3081 -7.4317,4.7605 v 0.5819 c 0,3.5053 1.6519,4.4289 4.4696,4.4289 2.2358,0 4.2254,-0.6795 6.5548,-1.9469 z"
        id="path3694"
        style="fill:#333333" />
    <path
        d="m 110.656,9.4844 c -2.234,0 -4.272,0.5819 -6.702,2.0406 v 20.3766 c 0,0.4883 -0.437,0.9684 -0.972,0.9684 h -2.378 c -0.484,0 -0.9238,-0.4333 -0.9238,-0.9684 V 7.09808 c 0,-0.53302 0.3868,-0.97041 0.9238,-0.97041 h 2.282 c 0.533,0 0.924,0.43536 0.924,0.97041 v 1.02534 c 2.427,-1.70483 4.661,-2.33143 6.848,-2.33143 0.681,0 1.019,0.28888 1.019,0.87276 V 8.6605 c -0.002,0.533 -0.342,0.8239 -1.021,0.8239 z"
        id="path3696"
        style="fill:#333333" />
    <path
        d="m 147.481,32.8679 h -2.33 c -0.533,0 -0.972,-0.4333 -0.972,-0.9684 V 14.6864 c 0,-4.081 -1.894,-5.1979 -4.421,-5.1979 -1.747,0 -3.788,0.5798 -5.682,1.3061 0.291,1.0721 0.435,2.3334 0.435,3.7962 v 17.3108 c 0,0.4842 -0.339,0.9684 -0.872,0.9684 h -2.576 c -0.484,0 -0.826,-0.4334 -0.826,-0.9684 V 14.5908 c 0,-4.2316 -1.214,-5.1023 -3.741,-5.1023 -1.746,0 -3.884,0.8727 -5.924,1.8899 v 20.5252 c 0,0.4842 -0.34,0.9684 -0.875,0.9684 h -2.574 c -0.486,0 -0.826,-0.4333 -0.826,-0.9684 V 7.09804 c 0,-0.53302 0.387,-0.97042 0.922,-0.97042 h 2.429 c 0.533,0 0.924,0.43537 0.924,0.97042 v 0.92362 c 1.943,-1.21454 4.418,-2.28668 7.09,-2.28668 2.089,0 3.643,0.58388 4.858,1.99576 2.671,-1.26134 5.539,-1.99576 8.062,-1.99576 4.374,0 7.869,2.19106 7.869,8.95142 v 17.2152 c 0.002,0.533 -0.435,0.9663 -0.97,0.9663 z"
        id="path3698"
        style="fill:#333333" />
    <path
        d="m 172.712,32.868 h -2.234 c -0.535,0 -0.973,-0.4333 -0.973,-0.9684 v -1.0742 c -2.331,1.3631 -4.76,2.3803 -7.482,2.3803 -4.126,0 -7.916,-1.7964 -7.916,-7.8711 v -0.5819 c 0,-5.2528 3.06,-7.8793 11.706,-7.8793 h 3.593 v -1.9449 c 0,-4.0912 -1.408,-5.501 -5.196,-5.501 -3.158,0 -5.489,0.1973 -7.43,0.3926 h -0.244 c -0.435,0 -0.873,-0.1485 -0.873,-0.7791 V 7.3402 c 0,-0.53505 0.34,-0.82801 1.019,-0.92363 1.992,-0.33771 4.228,-0.6266 7.528,-0.6266 6.752,0 9.472,3.40153 9.472,9.13853 v 16.9711 c 0.002,0.5351 -0.435,0.9684 -0.97,0.9684 z m -3.304,-12.9287 h -3.593 c -5.877,0 -7.432,1.3081 -7.432,4.7605 v 0.5819 c 0,3.5053 1.652,4.4289 4.47,4.4289 2.234,0 4.227,-0.6795 6.555,-1.9469 z"
        id="path3700"
        style="fill:#333333" />
    <path
        d="m 195.847,32.6788 c -1.603,0.2909 -3.79,0.5269 -6.071,0.5269 -6.606,0 -10.347,-4.6629 -10.347,-11.8098 v -3.7941 c 0,-7.1469 3.691,-11.81183 10.347,-11.81183 2.234,0 4.468,0.23803 6.071,0.52895 0.777,0.14851 0.972,0.39061 0.972,1.0701 V 9.1366 c 0,0.4903 -0.39,0.7344 -0.826,0.7344 h -0.195 c -2.138,-0.2441 -3.644,-0.3377 -6.022,-0.3377 -3.886,0 -6.07,2.5735 -6.07,8.0685 v 3.7941 c 0,5.4462 2.136,8.0685 6.07,8.0685 2.378,0 3.884,-0.0936 6.022,-0.3397 h 0.195 c 0.434,0 0.826,0.2482 0.826,0.7344 v 1.7476 c -0.002,0.6306 -0.197,0.9236 -0.972,1.0721 z"
        id="path3702"
        style="fill:#333333" />
    <defs
        id="defs3707">
        <clipPath
            id="clip0_8_380">
            <rect
                width="41.357101"
                height="33.207699"
                transform="translate(0,2.28308)"
                id="rect3704"
                x="0"
                y="0"
                style="fill:#333333" />
        </clipPath>
    </defs>
</svg>