<?xml version="1.0" encoding="utf-8"?>
<svg id="master-artboard" viewBox="0 0 1400 980" version="1.1" xmlns="http://www.w3.org/2000/svg" x="0px" y="0px" style="enable-background:new 0 0 1400 980;" width="1400px" height="980px"><defs><style id="ee-google-fonts">@import url(https://fonts.googleapis.com/css?family=Anton:400|Roboto+Slab:100,300,400,700);</style><path id="text-path-0" d="M 778.8464965820312 213.4612274169922 A 100 18 0 0 1 988.3533935546875 213.4612274169922 A 100 18 0 0 1 778.8464965820312 213.4612274169922 Z" style="fill: none; stroke: red; stroke-width: 2;"/><path id="text-path-1" d="M 664.5464477539062 37.96122741699219 A 100 19 0 0 1 876.5812377929688 37.96122741699219 A 100 19 0 0 1 664.5464477539062 37.96122741699219" style="fill: none; stroke: red; stroke-width: 2;"/><path id="text-path-2" d="M 765.3650512695312 211.70851135253906 A 100 17 0 0 1 991.5017700195312 211.70851135253906 A 100 17 0 0 1 765.3650512695312 211.70851135253906" style="fill: none; stroke: red; stroke-width: 2;"/><path id="path-1" d="M 765.3650512695312 211.70851135253906 A 100 17 0 0 1 991.5017700195312 211.70851135253906 A 100 17 0 0 1 765.3650512695312 211.70851135253906" style="fill: none; stroke: red; stroke-width: 2;"/><clipPath id="clip0_8_380">
            <path d="M 0 0 H 41.357101 V 33.207699 H 0 V 0 Z" transform="translate(0,2.28308)" id="rect3704" style="fill:#333333"/>
        </clipPath><clipPath id="path-2">
            <path d="M 0 0 H 41.357101 V 33.207699 H 0 V 0 Z" transform="translate(0,2.28308)" id="path-3" style="fill:#333333"/>
        </clipPath></defs><rect id="ee-background" x="0" y="0" width="1400" height="980" style="fill: white; fill-opacity: 1; pointer-events: none;"/>


<path style="fill: rgb(63, 61, 61); fill-opacity: 1; stroke: rgb(0, 0, 0); stroke-opacity: 1; stroke-width: 0; paint-order: fill;"/><path style="fill: rgb(63, 61, 61); fill-opacity: 1; stroke: rgb(0, 0, 0); stroke-opacity: 1; stroke-width: 0; paint-order: fill;"/><path d="M 880.3870239257812 239.90606689453125" style="fill: rgb(63, 61, 61); fill-opacity: 1; stroke: rgb(0, 0, 0); stroke-opacity: 1; stroke-width: 0; paint-order: fill;"/><path d="M 864.144775390625 229.48651123046875" style="fill: rgb(63, 61, 61); fill-opacity: 1; stroke: rgb(0, 0, 0); stroke-opacity: 1; stroke-width: 0; paint-order: fill;"/><path style="fill: rgb(63, 61, 61); fill-opacity: 1; stroke: rgb(0, 0, 0); stroke-opacity: 1; stroke-width: 0; paint-order: fill;"/><path style="fill: rgb(63, 61, 61); fill-opacity: 1; stroke: rgb(0, 0, 0); stroke-opacity: 1; stroke-width: 0; paint-order: fill;"/><path style="fill: rgb(63, 61, 61); fill-opacity: 1; stroke: rgb(0, 0, 0); stroke-opacity: 1; stroke-width: 0; paint-order: fill;"/><path style="fill: rgb(63, 61, 61); fill-opacity: 1; stroke: rgb(0, 0, 0); stroke-opacity: 1; stroke-width: 0; paint-order: fill;"/><g transform="matrix(7.113134384155273, 0, 0, 7.113134384155273, 404.4827509411627, 333.00721002446016)"><g clip-path="url(#clip0_8_380)" id="g3690" transform="matrix(2.6307176592481687, 0, 0, 2.6307176592481687, -16.820810317993164, -25.19626161385843)">
        <path d="m 41.3571,33.7148 c 0,0.9794 -0.793,1.776 -1.776,1.776 H 1.77598 C 0.793025,35.4908 0,34.6942 0,33.7148 0,32.7459 0.793025,31.9423 1.77598,31.9423 H 39.5811 c 0.983,0 1.776,0.8042 1.776,1.7725 z" id="path3680" style="fill:#5893ce"/>
        <path d="m 41.3571,26.2977 c 0,0.9847 -0.793,1.7777 -1.776,1.7777 H 10.5799 c -0.98121,0 -1.77424,-0.793 -1.77424,-1.7777 0,-0.9672 0.79303,-1.7713 1.77424,-1.7713 h 29.0012 c 0.983,0 1.776,0.8041 1.776,1.7713 z" id="path3682" style="fill:#7065ad"/>
        <path d="m 41.3572,18.8875 c 0,0.9818 -0.793,1.7777 -1.776,1.7777 h -20.469 c -0.9818,0 -1.776,-0.7959 -1.776,-1.7777 0,-0.9783 0.7942,-1.7789 1.776,-1.7789 h 20.469 c 0.983,0 1.776,0.8012 1.776,1.7789 z" id="path3684" style="fill:#ee334f"/>
        <path d="m 41.357,11.4686 c 0,0.9847 -0.793,1.7789 -1.776,1.7789 H 27.7435 c -0.9818,0 -1.776,-0.7948 -1.776,-1.7789 0,-0.9736 0.7942,-1.76779 1.776,-1.76779 H 39.581 c 0.983,0 1.776,0.79419 1.776,1.76779 z" id="path3686" style="fill:#f6a61c"/>
        <path d="m 41.3571,4.06023 c 0,0.98295 -0.793,1.77598 -1.776,1.77598 H 36.139 c -0.9812,0 -1.776,-0.79244 -1.776,-1.77598 6e-4,-0.97477 0.7948,-1.77715 1.776,-1.77715 h 3.4421 c 0.983,0 1.776,0.80238 1.776,1.77715 z" id="path3688" style="fill:#69bd45"/>
    </g></g></svg>